<?xml version="1.0" encoding="UTF-8"?>
<svg version="1.1" xmlns="http://www.w3.org/2000/svg" width="256" height="288">
<path d="M0 0 C1.05703125 -0.02835938 2.1140625 -0.05671875 3.203125 -0.0859375 C12.43413506 1.11368716 20.76998472 7.02291363 28.75 11.5 C29.96325252 12.17773357 31.17655053 12.85538572 32.38989258 13.53295898 C40.82953082 18.25543287 49.19250865 23.0965469 57.50292969 28.04248047 C62.01069599 30.7155996 66.53690071 33.35722321 71.0625 36 C72.05934814 36.58281738 73.05619629 37.16563477 74.08325195 37.76611328 C79.75551023 41.07414894 85.44612315 44.34690087 91.16015625 47.58203125 C91.78289932 47.93525452 92.4056424 48.28847778 93.04725647 48.65240479 C96.07275661 50.36837549 99.10071759 52.07962069 102.1340332 53.78173828 C125.08681934 66.780808 125.08681934 66.780808 128.30696392 77.17234516 C128.8229101 79.7374892 128.88531263 82.11324922 128.89717102 84.73075867 C128.90790398 86.36025703 128.90790398 86.36025703 128.91885376 88.02267456 C128.92154266 89.20975006 128.92423157 90.39682556 128.92700195 91.61987305 C128.93357315 92.87396469 128.94014435 94.12805634 128.94691467 95.42015076 C128.96664579 99.57567586 128.97831398 103.73116238 128.98828125 107.88671875 C128.99233068 109.32038708 128.99644765 110.75405522 129.00063133 112.18772316 C129.01967456 118.92546251 129.03390651 125.66319097 129.0422433 132.40095204 C129.05200806 140.1634503 129.07831104 147.92566283 129.11874419 155.68806046 C129.14896622 161.69757626 129.16371798 167.70701044 129.16702431 173.71660072 C129.16936817 177.30126982 129.17824099 180.88563339 129.20348549 184.47022057 C129.23123219 188.47471281 129.22691659 192.47857184 129.2199707 196.4831543 C129.23918579 198.24858582 129.23918579 198.24858582 129.25878906 200.04968262 C129.20905315 207.93165186 128.02797763 214.30779532 122.99169922 220.55664062 C117.60707897 224.93862746 111.91708858 228.46735769 105.875 231.875 C104.8334375 232.47248047 103.791875 233.06996094 102.71875 233.68554688 C100.51540978 234.94891797 98.30996134 236.20861863 96.10253906 237.46484375 C91.72504095 239.95898483 87.36217249 242.47806996 82.99951172 244.99804688 C80.8221274 246.25572762 78.64406006 247.51222658 76.46533203 248.76757812 C69.21293947 252.94637366 61.97666343 257.15188873 54.75 261.375 C46.09162978 266.43101425 37.4269679 271.47597683 28.75 276.5 C27.66976562 277.12777344 26.58953125 277.75554687 25.4765625 278.40234375 C5.23165768 290.10563256 5.23165768 290.10563256 -4.4453125 287.8671875 C-19.28509024 283.07566052 -32.96330536 273.62995358 -46.3046875 265.70703125 C-49.9309416 263.55575908 -53.5842846 261.45836217 -57.25 259.375 C-62.25855947 256.52677265 -67.22980496 253.62319201 -72.1875 250.6875 C-79.07215467 246.61261507 -86.02545827 242.66873239 -93 238.75 C-123.88899144 221.35440778 -123.88899144 221.35440778 -127.25 211.375 C-127.82277458 207.02173545 -127.80713136 202.71075957 -127.78344727 198.32470703 C-127.79206284 197.03262329 -127.80067841 195.74053955 -127.80955505 194.40930176 C-127.83195141 190.88428735 -127.82913213 187.35972401 -127.82023358 183.83466578 C-127.81510222 180.8826064 -127.82243377 177.9306302 -127.82970566 174.9785794 C-127.84667442 168.00891955 -127.84317037 161.03947879 -127.82641602 154.06982422 C-127.80950467 146.90100109 -127.82532196 139.73278734 -127.8576389 132.56403077 C-127.88440959 126.38962105 -127.89159052 120.21540014 -127.88312382 114.04093826 C-127.87821538 110.36183195 -127.88029571 106.68309186 -127.90091133 103.00403214 C-127.92282569 98.89700058 -127.9037859 94.79110951 -127.88110352 90.68408203 C-127.89279572 89.47960419 -127.90448792 88.27512634 -127.91653442 87.03414917 C-127.81941867 78.36414276 -126.09436655 71.27608672 -119.8671875 64.95703125 C-118.50980469 64.08111328 -118.50980469 64.08111328 -117.125 63.1875 C-116.59422852 62.84130615 -116.06345703 62.4951123 -115.51660156 62.13842773 C-106.8992659 56.67808649 -97.81560971 51.92750284 -88.87109375 47.02734375 C-83.54705897 44.10542414 -78.2804822 41.10680003 -73.0625 38 C-67.8298651 34.88591008 -62.56732344 31.84237196 -57.25 28.875 C-51.81253254 25.83872563 -46.42238394 22.73370185 -41.0625 19.5625 C-34.39880789 15.62500602 -27.71086914 11.73158786 -21 7.875 C-20.10643799 7.35832764 -19.21287598 6.84165527 -18.29223633 6.30932617 C-17.44814209 5.82568604 -16.60404785 5.3420459 -15.734375 4.84375 C-14.98897461 4.41513672 -14.24357422 3.98652344 -13.47558594 3.54492188 C-8.87892472 1.12859887 -5.21375213 0.06296802 0 0 Z " fill="#3A0292" transform="translate(127.25,-0.375)"/>
<path d="M0 0 C0.79921875 0.19335938 1.5984375 0.38671875 2.421875 0.5859375 C23.75112661 6.76019454 42.49698045 21.8600054 54.92578125 39.9765625 C56 42 56 42 56 45 C55.24493164 45.41773682 54.48986328 45.83547363 53.71191406 46.26586914 C50.84851809 47.85088523 47.98581395 49.43713788 45.12353516 51.02416992 C43.89626129 51.70433616 42.6687316 52.38404105 41.44091797 53.06323242 C40.24811169 53.72313467 39.05568805 54.38372905 37.86364746 55.04501343 C36.67263981 55.70547427 35.48066026 56.3641855 34.28771973 57.02114868 C31.33606473 58.65636798 28.43054997 60.33432495 25.57226562 62.12841797 C24.51201172 62.78600098 23.45175781 63.44358398 22.359375 64.12109375 C21.42061523 64.72236084 20.48185547 65.32362793 19.51464844 65.94311523 C17 67 17 67 14.79052734 66.31567383 C12.41655276 64.57128482 10.74370709 62.52554738 8.875 60.25 C0.95720247 51.28596822 -9.4779151 45.95447351 -21.41796875 44.6171875 C-35.03690292 44.16372687 -47.34857917 48.41621928 -57.6875 57.3125 C-67.95119928 69.24058295 -72.54732068 79.55122075 -72.32421875 95.42578125 C-71.17240435 108.12349423 -64.94370741 118.26957655 -56 127 C-44.6214625 136.33318085 -32.35090294 138.79238114 -18 138 C-4.13495698 135.73396804 6.92153883 127.15837449 15 116 C19.95060083 116.55431438 23.46778608 118.82807312 27.625 121.375 C29.12581492 122.27685288 30.6271379 123.17786068 32.12890625 124.078125 C32.91539551 124.55185547 33.70188477 125.02558594 34.51220703 125.51367188 C38.83563104 128.09669497 43.2001184 130.6085269 47.5625 133.125 C49.1888193 134.06507438 50.81512292 135.00517589 52.44140625 135.9453125 C53.62755344 136.63029618 54.81373038 137.31522837 56 138 C55.54164984 142.88601269 53.11305913 145.98836101 50.125 149.6875 C49.63104736 150.30326904 49.13709473 150.91903809 48.62817383 151.5534668 C37.49644943 165.13024857 23.56684039 175.14522656 7 181 C5.97390625 181.36867187 4.9478125 181.73734375 3.890625 182.1171875 C-17.98254032 189.42602567 -43.83490065 189.28991487 -64.88671875 179.08544922 C-74.10115184 174.40025754 -82.34614986 168.99676285 -90 162 C-91.20076172 160.90365234 -91.20076172 160.90365234 -92.42578125 159.78515625 C-108.98101777 143.95334183 -119.57910253 121.45902762 -120.23828125 98.53515625 C-120.67999453 69.05868233 -113.73821694 45.53880184 -93.125 23.90625 C-68.37180162 -0.70325558 -33.38392554 -8.30716287 0 0 Z " fill="#FEFDFE" transform="translate(154,52)"/>
<path d="M0 0 C1.05703125 -0.02835938 2.1140625 -0.05671875 3.203125 -0.0859375 C12.43413506 1.11368716 20.76998472 7.02291363 28.75 11.5 C29.96325252 12.17773357 31.17655053 12.85538572 32.38989258 13.53295898 C40.82953082 18.25543287 49.19250865 23.0965469 57.50292969 28.04248047 C62.01069599 30.7155996 66.53690071 33.35722321 71.0625 36 C72.05934814 36.58281738 73.05619629 37.16563477 74.08325195 37.76611328 C79.75551023 41.07414894 85.44612315 44.34690087 91.16015625 47.58203125 C91.78289932 47.93525452 92.4056424 48.28847778 93.04725647 48.65240479 C96.07275661 50.36837549 99.10071759 52.07962069 102.1340332 53.78173828 C121.72732271 64.87819231 121.72732271 64.87819231 125.75 72.375 C124.85414185 72.87930542 124.85414185 72.87930542 123.94018555 73.39379883 C110.49267076 80.96807071 97.08770621 88.60893769 83.75 96.375 C81.80976971 93.96143881 79.87959227 91.54413379 77.99609375 89.0859375 C61.86923149 68.25685838 41.29588714 54.70644222 14.99609375 50.8203125 C-11.46058513 47.67377336 -36.37614433 53.4280174 -57.4921875 69.875 C-75.87350878 84.59760609 -88.23845705 105.06554025 -92.25 128.375 C-92.64114955 133.19740533 -92.67132689 137.97648719 -92.625 142.8125 C-92.63660156 144.01970703 -92.64820313 145.22691406 -92.66015625 146.47070312 C-92.6248598 157.46554678 -90.93447686 168.10613176 -86.75 178.3125 C-86.3478125 179.31152344 -85.945625 180.31054688 -85.53125 181.33984375 C-84.11681966 184.69049123 -82.68821552 188.03449361 -81.25 191.375 C-86.85546875 194.578125 -92.4609375 197.78125 -98.06640625 200.984375 C-98.67482361 201.33226074 -99.28324097 201.68014648 -99.91009521 202.03857422 C-101.14423941 202.74335686 -102.37914768 203.44680316 -103.61480713 204.14892578 C-106.82854447 205.97736085 -110.02426599 207.82982492 -113.19824219 209.7265625 C-114.15342239 210.2907489 -114.15342239 210.2907489 -115.12789917 210.86633301 C-116.89508431 211.91132959 -118.6564622 212.96612859 -120.41748047 214.02148438 C-123.25 215.375 -123.25 215.375 -126.25 214.375 C-127.2714742 211.31057739 -127.38550523 209.20442098 -127.40390015 205.99436951 C-127.41250061 204.87720047 -127.42110107 203.76003143 -127.42996216 202.60900879 C-127.43422211 201.3825061 -127.43848206 200.15600342 -127.44287109 198.89233398 C-127.45104858 197.60098038 -127.45922607 196.30962677 -127.46765137 194.97914124 C-127.49385144 190.69314658 -127.5091817 186.40714229 -127.5234375 182.12109375 C-127.5287989 180.64318397 -127.53417641 179.16527424 -127.53956985 177.68736458 C-127.56119983 171.53573038 -127.57993311 165.38409878 -127.59119225 159.23243618 C-127.60740796 150.43167866 -127.6405259 141.63136427 -127.69759309 132.83077377 C-127.7363892 126.63527923 -127.75583659 120.4399027 -127.76111281 114.24428993 C-127.76475447 110.54827777 -127.77664697 106.85273845 -127.80921555 103.15685844 C-127.84509895 99.02545053 -127.84090092 94.89498504 -127.83349609 90.76342773 C-127.84990143 89.55109467 -127.86630676 88.3387616 -127.88320923 87.08969116 C-127.81951493 78.38443092 -126.12032976 71.30243299 -119.8671875 64.95703125 C-118.50980469 64.08111328 -118.50980469 64.08111328 -117.125 63.1875 C-116.59422852 62.84130615 -116.06345703 62.4951123 -115.51660156 62.13842773 C-106.8992659 56.67808649 -97.81560971 51.92750284 -88.87109375 47.02734375 C-83.54705897 44.10542414 -78.2804822 41.10680003 -73.0625 38 C-67.8298651 34.88591008 -62.56732344 31.84237196 -57.25 28.875 C-51.81253254 25.83872563 -46.42238394 22.73370185 -41.0625 19.5625 C-34.39880789 15.62500602 -27.71086914 11.73158786 -21 7.875 C-20.10643799 7.35832764 -19.21287598 6.84165527 -18.29223633 6.30932617 C-17.44814209 5.82568604 -16.60404785 5.3420459 -15.734375 4.84375 C-14.98897461 4.41513672 -14.24357422 3.98652344 -13.47558594 3.54492188 C-8.87892472 1.12859887 -5.21375213 0.06296802 0 0 Z " fill="#A179DC" transform="translate(127.25,-0.375)"/>
<path d="M0 0 C2.13514298 1.5313236 3.11745674 3.01448535 4.45898438 5.27050781 C17.89682081 26.30511108 39.09709097 39.17105594 63.07617188 44.71191406 C87.26034078 49.72399544 113.05648364 44.21600965 133.90820312 31.26660156 C146.07173722 22.78697548 155.67136314 12.70538781 163.77148438 0.27050781 C167.12484042 0.93547653 169.70213639 2.20878852 172.66601562 3.89550781 C173.61532959 4.43344971 174.56464355 4.9713916 175.54272461 5.52563477 C176.54634033 6.10144287 177.54995605 6.67725098 178.58398438 7.27050781 C180.11937866 8.14485474 180.11937866 8.14485474 181.68579102 9.03686523 C189.78526489 13.66504516 197.81272453 18.40472573 205.77148438 23.27050781 C204.87670279 28.37192488 201.80834594 30.33354476 197.77148438 33.27050781 C194.23974246 35.54731605 190.61263173 37.63386399 186.95898438 39.70800781 C185.91291016 40.31 184.86683594 40.91199219 183.7890625 41.53222656 C181.57451038 42.80595589 179.35816135 44.07656552 177.14013672 45.34423828 C172.75933037 47.84927974 168.38905372 50.37236184 164.01879883 52.89575195 C161.84210764 54.15241022 159.66485514 55.40809669 157.48706055 56.6628418 C150.23467104 60.84186449 142.99824379 65.04734044 135.77148438 69.27050781 C127.11311415 74.32652207 118.44845227 79.37148464 109.77148438 84.39550781 C108.15113281 85.33716797 108.15113281 85.33716797 106.49804688 86.29785156 C86.25314205 98.00114037 86.25314205 98.00114037 76.57617188 95.76269531 C61.73639414 90.97116833 48.05817902 81.5254614 34.71679688 73.60253906 C31.09054277 71.4512669 27.43719978 69.35386998 23.77148438 67.27050781 C18.76292491 64.42228046 13.79167941 61.51869982 8.83398438 58.58300781 C1.9493297 54.50812288 -5.00397389 50.56424021 -11.97851562 46.64550781 C-41.38653801 30.08394522 -41.38653801 30.08394522 -42.86914062 25.12988281 C-42.98773438 24.51628906 -43.10632812 23.90269531 -43.22851562 23.27050781 C-42.27976563 22.71105469 -41.33101562 22.15160156 -40.35351562 21.57519531 C-39.3870813 21.00526855 -39.3870813 21.00526855 -38.40112305 20.42382812 C-36.931237 19.55897552 -35.46000477 18.69640745 -33.98754883 17.8359375 C-29.26367336 15.07276159 -24.56997872 12.26662453 -19.89648438 9.41894531 C-17.7364087 8.11933221 -15.57625303 6.81985206 -13.41601562 5.52050781 C-11.85077148 4.55346924 -11.85077148 4.55346924 -10.25390625 3.56689453 C-9.26970703 2.97924316 -8.28550781 2.3915918 -7.27148438 1.78613281 C-5.95700317 0.9861084 -5.95700317 0.9861084 -4.6159668 0.16992188 C-2.22851562 -0.72949219 -2.22851562 -0.72949219 0 0 Z " fill="#290169" transform="translate(46.228515625,191.7294921875)"/>
<path d="M0 0 C5.88000895 4.31268949 10.59823862 9.86473198 15.3046875 15.39453125 C12.12660127 17.90115716 8.79903778 19.90846435 5.28125 21.90625 C4.69862396 22.23816849 4.11599792 22.57008698 3.51571655 22.9120636 C1.65514565 23.97127343 -0.2075179 25.02673803 -2.0703125 26.08203125 C-3.28269574 26.77123173 -4.49493651 27.4606829 -5.70703125 28.15039062 C-8.14650253 29.5380825 -10.58655927 30.92473606 -13.02709961 32.31054688 C-24.02428294 38.5567937 -34.97660709 44.87366983 -45.88085938 51.28125 C-51.69647079 54.68606768 -57.55241105 57.97589414 -63.5090332 61.12841797 C-65.80550531 62.33303119 -65.80550531 62.33303119 -67.6953125 64.39453125 C-68.51073681 62.31234076 -69.32254439 60.22873364 -70.1328125 58.14453125 C-70.58527344 56.984375 -71.03773437 55.82421875 -71.50390625 54.62890625 C-75.93588087 42.59718498 -74.20104576 29.77777477 -68.9453125 18.26953125 C-61.88086892 5.28264062 -51.54338289 -1.86539374 -37.6953125 -6.60546875 C-24.25074253 -9.91325978 -11.67135729 -6.95206934 0 0 Z " fill="#A179DB" transform="translate(154.6953125,103.60546875)"/>
<path d="M0 0 C1.8664194 0.8935826 3.69849927 1.86076757 5.5 2.87890625 C6.54679932 3.46720215 7.59359863 4.05549805 8.67211914 4.66162109 C9.77031982 5.28891113 10.86852051 5.91620117 12 6.5625 C13.11818115 7.19494629 14.2363623 7.82739258 15.38842773 8.47900391 C23.0309244 12.82121789 30.59652443 17.26059815 38 22 C35.0587158 30.8395814 27.25886939 36.61293415 19.375 41 C8.42234373 46.4126499 -3.17274276 48.1354736 -15.25 44.875 C-26.6965672 40.76257437 -36.17790475 34.23314288 -43 24 C-42.97827148 22.02880859 -42.97827148 22.02880859 -42 20 C-39.56665039 18.26416016 -39.56665039 18.26416016 -36.34765625 16.5390625 C-35.77349472 16.22601166 -35.19933319 15.91296082 -34.60777283 15.59042358 C-32.76585012 14.5893282 -30.91480726 13.60672526 -29.0625 12.625 C-27.25037405 11.64981719 -25.44032797 10.67088537 -23.63095093 9.69061279 C-21.86380408 8.73529203 -20.09231613 7.7880157 -18.32080078 6.84082031 C-14.4875507 4.71593385 -10.81778448 2.3915338 -7.18139648 -0.05322266 C-4.29649867 -1.30533611 -2.9706413 -0.96497099 0 0 Z " fill="#290169" transform="translate(131,145)"/>
<path d="M0 0 C2.31 0 4.62 0 7 0 C7 4.62 7 9.24 7 14 C11.29 14 15.58 14 20 14 C20 9.38 20 4.76 20 0 C22.31 0 24.62 0 27 0 C27 4.62 27 9.24 27 14 C31.62 14 36.24 14 41 14 C41 16.31 41 18.62 41 21 C36.38 21 31.76 21 27 21 C27 25.29 27 29.58 27 34 C31.62 34 36.24 34 41 34 C41 36.31 41 38.62 41 41 C36.38 41 31.76 41 27 41 C27 45.29 27 49.58 27 54 C24.69 54 22.38 54 20 54 C20 49.71 20 45.42 20 41 C15.71 41 11.42 41 7 41 C7 45.29 7 49.58 7 54 C4.69 54 2.38 54 0 54 C0 49.71 0 45.42 0 41 C-4.29 41 -8.58 41 -13 41 C-13 38.69 -13 36.38 -13 34 C-8.71 34 -4.42 34 0 34 C0 29.71 0 25.42 0 21 C-4.29 21 -8.58 21 -13 21 C-13 18.69 -13 16.38 -13 14 C-8.71 14 -4.42 14 0 14 C0 9.38 0 4.76 0 0 Z " fill="#F5F2F9" transform="translate(195,116)"/>
<path d="M0 0 C4.29 0 8.58 0 13 0 C13 4.29 13 8.58 13 13 C8.71 13 4.42 13 0 13 C0 8.71 0 4.42 0 0 Z " fill="#390091" transform="translate(202,137)"/>
</svg>
