<?xml version="1.0" encoding="UTF-8"?>
<svg version="1.1" xmlns="http://www.w3.org/2000/svg" width="32" height="32">
<path d="M0 0 C0.71220703 -0.01933594 1.42441406 -0.03867188 2.15820312 -0.05859375 C6.94039737 -0.01515874 11.07531584 0.92643066 15.04711914 3.66796875 C18.46040753 8.07604346 17.34666652 14.15582802 17.0625 19.4375 C17.02640625 20.70271484 16.9903125 21.96792969 16.953125 23.27148438 C16.85890876 26.39239744 16.72748197 29.50715808 16.5625 32.625 C12.66680865 32.71232726 8.77137018 32.76550185 4.875 32.8125 C3.22081055 32.85020508 3.22081055 32.85020508 1.53320312 32.88867188 C0.46650391 32.89833984 -0.60019531 32.90800781 -1.69921875 32.91796875 C-2.67850342 32.9336792 -3.65778809 32.94938965 -4.66674805 32.96557617 C-8.87668614 32.44809766 -11.48295791 30.57954209 -14.4375 27.625 C-14.7675 27.625 -15.0975 27.625 -15.4375 27.625 C-15.64141987 24.06334893 -15.76532061 20.50319947 -15.875 16.9375 C-15.93365234 15.93009766 -15.99230469 14.92269531 -16.05273438 13.88476562 C-16.21842255 6.7128347 -16.21842255 6.7128347 -14.14477539 3.82421875 C-9.80158849 0.3461912 -5.40940579 -0.14606856 0 0 Z M-8.8515625 7.22265625 C-10.8584048 10.26257746 -11.13621916 12.43889597 -11.375 16.0625 C-11.46652344 17.17496094 -11.55804688 18.28742187 -11.65234375 19.43359375 C-11.40421367 23.11945327 -10.86758038 24.84126967 -8.4375 27.625 C-3.96245623 29.00341606 0.31315103 28.5801334 4.9375 28.1875 C6.80535156 28.03474609 6.80535156 28.03474609 8.7109375 27.87890625 C9.65195312 27.79511719 10.59296875 27.71132813 11.5625 27.625 C11.64357646 24.87440619 11.70302813 22.12620979 11.75 19.375 C11.77513672 18.59769531 11.80027344 17.82039063 11.82617188 17.01953125 C11.86862315 13.70833195 11.81123909 11.21529126 10.515625 8.140625 C7.61271404 5.88796609 4.66748995 5.79482215 1.125 5.625 C0.12243164 5.53025391 0.12243164 5.53025391 -0.90039062 5.43359375 C-4.18234424 5.23192762 -6.08659694 5.39276804 -8.8515625 7.22265625 Z " fill="#4ECCED" transform="translate(15.4375,-0.625)"/>
<path d="M0 0 C3.94438464 3.94438464 3.94438464 3.94438464 4.11352539 7.15478516 C4.10828857 8.02409668 4.10305176 8.8934082 4.09765625 9.7890625 C4.09443359 10.73007813 4.09121094 11.67109375 4.08789062 12.640625 C4.07951172 13.62546875 4.07113281 14.6103125 4.0625 15.625 C4.05798828 16.61757813 4.05347656 17.61015625 4.04882812 18.6328125 C4.03702145 21.0886016 4.020554 23.54427104 4 26 C0.27215931 26.25574877 -3.45696934 26.47490227 -7.1875 26.6875 C-8.24259766 26.76033203 -9.29769531 26.83316406 -10.38476562 26.90820312 C-11.91713867 26.99038086 -11.91713867 26.99038086 -13.48046875 27.07421875 C-14.41785889 27.13182373 -15.35524902 27.18942871 -16.32104492 27.2487793 C-19.58714261 26.94547541 -21.38044931 25.93798026 -24 24 C-25.53366713 19.83291418 -25.18351287 15.2182755 -25.1875 10.8125 C-25.19974609 10.08869141 -25.21199219 9.36488281 -25.22460938 8.61914062 C-25.22984064 6.74460529 -25.12248796 4.8705365 -25 3 C-24.34 2.34 -23.68 1.68 -23 1 C-22.92652344 2.66289063 -22.92652344 2.66289063 -22.8515625 4.359375 C-22.77650785 5.82294065 -22.70096119 7.28648112 -22.625 8.75 C-22.57859375 9.84441406 -22.57859375 9.84441406 -22.53125 10.9609375 C-22.40175956 16.38318286 -22.40175956 16.38318286 -20 21 C-15.4618218 22.2860416 -10.81041509 22.12105473 -6.125 22.0625 C-2.598125 22.0315625 -2.598125 22.0315625 1 22 C0.67 14.74 0.34 7.48 0 0 Z " fill="#34C3EB" transform="translate(27,5)"/>
<path d="M0 0 C1.18142578 0.28423828 1.18142578 0.28423828 2.38671875 0.57421875 C4.3125 1.3125 4.3125 1.3125 5.3125 3.3125 C5.54438406 10.61684783 5.54438406 10.61684783 4.3125 14.3125 C2.68759046 14.33948189 1.06255367 14.35888757 -0.5625 14.375 C-1.91988281 14.39240234 -1.91988281 14.39240234 -3.3046875 14.41015625 C-5.6875 14.3125 -5.6875 14.3125 -7.6875 13.3125 C-8.2421875 10.9140625 -8.2421875 10.9140625 -8.5625 7.9375 C-8.68367187 6.96039062 -8.80484375 5.98328125 -8.9296875 4.9765625 C-8.6875 2.3125 -8.6875 2.3125 -6.98828125 0.41796875 C-4.17907957 -0.9317835 -2.98421834 -0.77441699 0 0 Z " fill="#01C0FC" transform="translate(17.6875,8.6875)"/>
<path d="M0 0 C2.66842643 -0.13645362 5.32972734 -0.23474664 8 -0.3125 C9.11568359 -0.3753418 9.11568359 -0.3753418 10.25390625 -0.43945312 C15.22645127 -0.54755193 19.36295981 0.14108194 23.5 3.03198242 C26.88086909 7.46772229 25.78460968 13.52259133 25.5 18.8125 C25.46390625 20.07771484 25.4278125 21.34292969 25.390625 22.64648438 C25.29640876 25.76739744 25.16498197 28.88215808 25 32 C22.69 32 20.38 32 18 32 C18 31.67 18 31.34 18 31 C19.98 31 21.96 31 24 31 C23.8901717 27.56183853 23.75953137 24.12477652 23.625 20.6875 C23.5940625 19.71103516 23.563125 18.73457031 23.53125 17.72851562 C23.49257813 16.79072266 23.45390625 15.85292969 23.4140625 14.88671875 C23.3826416 14.02264404 23.3512207 13.15856934 23.31884766 12.26831055 C23.12811963 9.72257555 23.12811963 9.72257555 21 7 C21 13.6 21 20.2 21 27 C20.34 26.67 19.68 26.34 19 26 C19.02320312 24.87980469 19.04640625 23.75960938 19.0703125 22.60546875 C19.08907237 21.13281916 19.10727234 19.66016237 19.125 18.1875 C19.14175781 17.44951172 19.15851562 16.71152344 19.17578125 15.95117188 C19.21074628 12.08753574 19.19397555 10.29096332 17 7 C14.3443272 6.41651248 14.3443272 6.41651248 11.375 6.3125 C10.37210938 6.24675781 9.36921875 6.18101562 8.3359375 6.11328125 C7.56507812 6.07589844 6.79421875 6.03851562 6 6 C6 5.67 6 5.34 6 5 C12.435 4.505 12.435 4.505 19 4 C14.40326811 2.16130724 11.52639069 1.64633966 6.6875 1.375 C4.80611328 1.26285156 4.80611328 1.26285156 2.88671875 1.1484375 C1.45779297 1.07496094 1.45779297 1.07496094 0 1 C0 0.67 0 0.34 0 0 Z " fill="#6FE3F6" transform="translate(7,0)"/>
<path d="M0 0 C3 3 3 3 3.34057617 5.36010742 C3.32486572 6.26607666 3.30915527 7.1720459 3.29296875 8.10546875 C3.28172974 9.43421021 3.28172974 9.43421021 3.27026367 10.78979492 C3.24295166 11.9110376 3.21563965 13.03228027 3.1875 14.1875 C3.125625 17.755625 3.06375 21.32375 3 25 C-4.26 25 -11.52 25 -19 25 C-19 24.34 -19 23.68 -19 23 C-14.71688495 21.94377551 -10.56891722 21.88342025 -6.1875 21.9375 C-3.815625 21.958125 -1.44375 21.97875 1 22 C0.67 14.74 0.34 7.48 0 0 Z " fill="#0CBCF3" transform="translate(27,5)"/>
<path d="M0 0 C1.18142578 0.28423828 1.18142578 0.28423828 2.38671875 0.57421875 C4.3125 1.3125 4.3125 1.3125 5.3125 3.3125 C5.54438406 10.61684783 5.54438406 10.61684783 4.3125 14.3125 C2.68759046 14.33948189 1.06255367 14.35888757 -0.5625 14.375 C-1.91988281 14.39240234 -1.91988281 14.39240234 -3.3046875 14.41015625 C-5.6875 14.3125 -5.6875 14.3125 -7.6875 13.3125 C-8.2421875 10.9140625 -8.2421875 10.9140625 -8.5625 7.9375 C-8.68367187 6.96039062 -8.80484375 5.98328125 -8.9296875 4.9765625 C-8.6875 2.3125 -8.6875 2.3125 -6.98828125 0.41796875 C-4.17907957 -0.9317835 -2.98421834 -0.77441699 0 0 Z M-6.6875 2.3125 C-6.6875 5.6125 -6.6875 8.9125 -6.6875 12.3125 C-3.3875 12.3125 -0.0875 12.3125 3.3125 12.3125 C3.3125 9.0125 3.3125 5.7125 3.3125 2.3125 C0.0125 2.3125 -3.2875 2.3125 -6.6875 2.3125 Z " fill="#44C2E9" transform="translate(17.6875,8.6875)"/>
<path d="M0 0 C2.37531394 -0.0543965 4.74935883 -0.09385864 7.125 -0.125 C7.79015625 -0.14175781 8.4553125 -0.15851562 9.140625 -0.17578125 C13.49516056 -0.21847278 16.95600114 0.40003783 21 2 C20.67 2.66 20.34 3.32 20 4 C12.74 4 5.48 4 -2 4 C-1.34 2.68 -0.68 1.36 0 0 Z " fill="#17BBEE" transform="translate(6,1)"/>
<path d="M0 0 C0.33 0 0.66 0 1 0 C1.07347656 1.62808594 1.07347656 1.62808594 1.1484375 3.2890625 C1.22351986 4.73439784 1.29906528 6.17970919 1.375 7.625 C1.42140625 8.69427734 1.42140625 8.69427734 1.46875 9.78515625 C1.71020155 14.17152608 2.39342731 17.8594834 4 22 C3.34 22.33 2.68 22.66 2 23 C0 22 0 22 -0.6171875 20.4453125 C-1.16827737 16.92508534 -1.14406728 13.42786976 -1.125 9.875 C-1.12886719 9.14667969 -1.13273438 8.41835937 -1.13671875 7.66796875 C-1.12671034 2.25342069 -1.12671034 2.25342069 0 0 Z " fill="#0EBBF2" transform="translate(3,6)"/>
<path d="M0 0 C1.25425781 0.00902344 2.50851563 0.01804687 3.80078125 0.02734375 C4.75339844 0.03894531 5.70601562 0.05054687 6.6875 0.0625 C6.6875 0.7225 6.6875 1.3825 6.6875 2.0625 C2.92449626 3.31683458 -0.58460909 3.16945422 -4.5 3.125 C-5.24958984 3.12048828 -5.99917969 3.11597656 -6.77148438 3.11132812 C-8.61852383 3.09956354 -10.46552213 3.08162865 -12.3125 3.0625 C-12.3125 2.4025 -12.3125 1.7425 -12.3125 1.0625 C-8.15623632 0.05323521 -4.26884906 -0.03989579 0 0 Z " fill="#1ABAEE" transform="translate(20.3125,26.9375)"/>
</svg>
