<?xml version="1.0" encoding="UTF-8"?>
<svg version="1.1" xmlns="http://www.w3.org/2000/svg" width="32" height="32">
<path d="M0 0 C1.67739258 0.00966797 1.67739258 0.00966797 3.38867188 0.01953125 C5.13954102 0.04466797 5.13954102 0.04466797 6.92578125 0.0703125 C8.69405273 0.08384766 8.69405273 0.08384766 10.49804688 0.09765625 C13.41166151 0.12124827 16.32487017 0.1541671 19.23828125 0.1953125 C20.36279297 5.95800781 20.36279297 5.95800781 19.2421875 8.09375 C18.76652344 8.58101562 18.29085938 9.06828125 17.80078125 9.5703125 C16.95515625 10.4365625 16.10953125 11.3028125 15.23828125 12.1953125 C15.73328125 13.1440625 16.22828125 14.0928125 16.73828125 15.0703125 C18.23828125 18.1953125 18.23828125 18.1953125 18.23828125 20.1953125 C17.57828125 20.1953125 16.91828125 20.1953125 16.23828125 20.1953125 C14.85595682 18.56904846 13.5189061 16.9028123 12.23828125 15.1953125 C10.91828125 16.8453125 9.59828125 18.4953125 8.23828125 20.1953125 C7.57828125 19.8653125 6.91828125 19.5353125 6.23828125 19.1953125 C6.75390625 18.2878125 7.26953125 17.3803125 7.80078125 16.4453125 C9.41341572 13.47156558 9.41341572 13.47156558 9.11328125 11.1328125 C8.82453125 10.4934375 8.53578125 9.8540625 8.23828125 9.1953125 C7.77421875 7.8340625 7.77421875 7.8340625 7.30078125 6.4453125 C5.46763651 3.96113563 5.46763651 3.96113563 2.81640625 3.87890625 C0.2725453 3.88249927 -2.22739475 3.98134518 -4.76171875 4.1953125 C-4.43171875 5.1853125 -4.10171875 6.1753125 -3.76171875 7.1953125 C-1.91980018 7.96134066 -1.91980018 7.96134066 0.23828125 8.3203125 C4.16204807 9.11907932 4.16204807 9.11907932 5.23828125 10.1953125 C5.70838039 16.54165084 5.70838039 16.54165084 4.0078125 18.90625 C1.7483487 20.55221701 0.44467208 20.53654449 -2.32421875 20.4453125 C-3.50177734 20.42210937 -3.50177734 20.42210937 -4.703125 20.3984375 C-6.76171875 20.1953125 -6.76171875 20.1953125 -8.76171875 19.1953125 C-9.38671875 16.6328125 -9.38671875 16.6328125 -9.76171875 14.1953125 C-8.44171875 14.1953125 -7.12171875 14.1953125 -5.76171875 14.1953125 C-5.43171875 14.8553125 -5.10171875 15.5153125 -4.76171875 16.1953125 C-3.11171875 16.1953125 -1.46171875 16.1953125 0.23828125 16.1953125 C0.23828125 14.8753125 0.23828125 13.5553125 0.23828125 12.1953125 C-0.87546875 11.9065625 -1.98921875 11.6178125 -3.13671875 11.3203125 C-6.76171875 10.1953125 -6.76171875 10.1953125 -8.76171875 8.1953125 C-9.07421875 5.1953125 -9.07421875 5.1953125 -8.76171875 2.1953125 C-5.31537993 -0.10224672 -4.05103484 -0.04112726 0 0 Z M10.23828125 3.1953125 C10.89828125 5.1753125 11.55828125 7.1553125 12.23828125 9.1953125 C14.91159838 6.48527957 14.91159838 6.48527957 16.23828125 3.1953125 C14.25828125 3.1953125 12.27828125 3.1953125 10.23828125 3.1953125 Z " fill="#6851A4" transform="translate(10.76171875,5.8046875)"/>
</svg>
