<?xml version="1.0" encoding="UTF-8"?>
<svg version="1.1" xmlns="http://www.w3.org/2000/svg" width="1024" height="1024">
<path d="M0 0 C1.60819422 0.4703684 3.21671935 0.93960662 4.82554626 1.4078064 C8.28517679 2.41700052 11.74252484 3.43355356 15.19827271 4.45596313 C20.73013355 6.09239713 26.2667944 7.7121345 31.80444336 9.32885742 C37.61941644 11.02719451 43.43415948 12.72628395 49.24736023 14.43067932 C68.17836424 19.97996889 87.13666749 25.43252578 106.10043335 30.86862183 C114.32071516 33.22511703 122.53963237 35.5863644 130.75869179 37.94711876 C133.42773455 38.71370139 136.09681862 39.48014004 138.76591492 40.24653625 C155.29133801 44.99176314 171.81408594 49.74626114 188.3359375 54.50390625 C189.6748958 54.8894567 191.01385453 55.27500562 192.35281372 55.66055298 C197.63095155 57.18038541 202.90907035 58.7002839 208.18714905 60.22032166 C217.6050742 62.93259527 227.02318094 65.64423759 236.44140625 68.35546875 C237.12447657 68.55210491 237.80754688 68.74874107 238.5113163 68.95133591 C241.96663818 69.94601984 245.42196287 70.94069398 248.87728882 71.93536377 C255.0722949 73.71869849 261.26727615 75.5021195 267.46225929 77.28553391 C270.89931768 78.27499488 274.33637767 79.26445028 277.7734375 80.25390625 C279.14843751 80.64973956 280.52343751 81.04557289 281.8984375 81.44140625 C282.5790625 81.63734375 283.2596875 81.83328125 283.9609375 82.03515625 C286.0234375 82.62890625 288.0859375 83.22265625 290.1484375 83.81640625 C290.82905054 84.01234029 291.50966358 84.20827433 292.21090126 84.41014576 C293.5860221 84.80601392 294.9611429 85.20188222 296.33626366 85.59775066 C299.77191447 86.58680233 303.207566 87.57585153 306.64321899 88.56489563 C312.8528012 90.35249165 319.06237819 92.14010581 325.27192879 93.92781162 C328.73857402 94.92584493 332.2052234 95.92386383 335.671875 96.921875 C336.6997368 97.21778565 336.6997368 97.21778565 337.74836349 97.5196743 C346.30655688 99.98346109 354.86491621 102.44667001 363.42347717 104.90917969 C369.83185953 106.7530389 376.2401711 108.59714408 382.6484375 110.44140625 C383.29962681 110.62881126 383.95081612 110.81621628 384.62173843 111.00930023 C403.831973 116.53793198 423.03977773 122.07495826 442.24609375 127.6171875 C443.31101673 127.92448036 444.37593971 128.23177322 445.47313309 128.54837799 C449.8607837 129.81447585 454.24843028 131.08058766 458.63607597 132.34670258 C461.99436085 133.31577843 465.35264822 134.28484565 468.7109375 135.25390625 C470.37811073 135.73498211 470.37811073 135.73498211 472.07896423 136.22577667 C504.01364989 145.44057178 535.95246211 154.64082512 567.8984375 163.81640625 C568.79455498 164.07379074 569.69067245 164.33117523 570.61394501 164.59635925 C575.06787614 165.87560523 579.52182097 167.15480349 583.97576904 168.43399048 C584.83853203 168.68177876 585.70129501 168.92956703 586.59020233 169.18486404 C588.3119663 169.67935561 590.03373243 170.17383962 591.75550079 170.66831589 C614.85553612 177.30254225 637.95099794 183.9526409 661.0460701 190.60412025 C670.91307843 193.44585131 680.78063973 196.2856563 690.64849663 199.12443924 C695.1416866 200.41708521 699.6348095 201.70996431 704.12793446 203.00283623 C707.68219986 204.02553226 711.23650705 205.0480825 714.79092407 206.07025146 C715.45851777 206.26225317 716.12611147 206.45425488 716.81393528 206.65207481 C718.13744334 207.03270549 719.46096701 207.4132819 720.7845068 207.79380226 C723.95449325 208.70547961 727.12378286 209.61948412 730.29222107 210.53652954 C736.210281 212.24928262 742.13222898 213.94226027 748.06933594 215.58789062 C749.17530121 215.89877625 750.28126648 216.20966187 751.42074585 216.52996826 C753.47716038 217.10769705 755.53612542 217.67645895 757.59805298 218.23419189 C762.49932215 219.62267218 766.41081174 220.82895915 770.0234375 224.62890625 C771.16462921 228.48042826 771.38406688 230.68421406 769.9453125 234.453125 C767.55979446 238.3950481 764.70141196 241.03364783 761.2734375 244.06640625 C759.92092193 245.29309102 758.57073237 246.52234437 757.22265625 247.75390625 C756.52962402 248.38683594 755.8365918 249.01976562 755.12255859 249.671875 C751.06240384 253.45719722 747.1829993 257.42491517 743.29980469 261.39038086 C740.35239251 264.37953288 737.36136806 267.2411905 734.17578125 269.9765625 C729.37824081 274.11723829 724.96650821 278.61451819 720.5234375 283.12890625 C715.50416241 288.22874756 710.46298125 293.18074108 705.03320312 297.84179688 C701.1903456 301.25891509 697.62735063 304.9634929 694.0234375 308.62890625 C689.17703346 313.55801343 684.29346131 318.31862836 679.05078125 322.82421875 C675.20345693 326.24900456 671.63329065 329.95745151 668.0234375 333.62890625 C663.17703346 338.55801343 658.29346131 343.31862836 653.05078125 347.82421875 C649.20345693 351.24900456 645.63329065 354.95745151 642.0234375 358.62890625 C633.60151793 367.19454459 633.60151793 367.19454459 629.0546875 371.09765625 C624.29177236 375.19093382 619.92629624 379.65537562 615.5234375 384.12890625 C610.50416241 389.22874756 605.46298125 394.18074108 600.03320312 398.84179688 C596.1903456 402.25891509 592.62735063 405.9634929 589.0234375 409.62890625 C584.17703346 414.55801343 579.29346131 419.31862836 574.05078125 423.82421875 C570.20345693 427.24900456 566.63329065 430.95745151 563.0234375 434.62890625 C558.17703346 439.55801343 553.29346131 444.31862836 548.05078125 448.82421875 C544.20345693 452.24900456 540.63329065 455.95745151 537.0234375 459.62890625 C528.60151793 468.19454459 528.60151793 468.19454459 524.0546875 472.09765625 C519.29177236 476.19093382 514.92629624 480.65537562 510.5234375 485.12890625 C505.50416241 490.22874756 500.46298125 495.18074108 495.03320312 499.84179688 C491.1903456 503.25891509 487.62735063 506.9634929 484.0234375 510.62890625 C479.17703346 515.55801343 474.29346131 520.31862836 469.05078125 524.82421875 C465.20345693 528.24900456 461.63329065 531.95745151 458.0234375 535.62890625 C453.17703346 540.55801343 448.29346131 545.31862836 443.05078125 549.82421875 C439.20345693 553.24900456 435.63329065 556.95745151 432.0234375 560.62890625 C423.60151793 569.19454459 423.60151793 569.19454459 419.0546875 573.09765625 C414.29177236 577.19093382 409.92629624 581.65537562 405.5234375 586.12890625 C400.50416241 591.22874756 395.46298125 596.18074108 390.03320312 600.84179688 C386.1903456 604.25891509 382.62735063 607.9634929 379.0234375 611.62890625 C374.17703346 616.55801343 369.29346131 621.31862836 364.05078125 625.82421875 C360.20345693 629.24900456 356.63329065 632.95745151 353.0234375 636.62890625 C348.17703346 641.55801343 343.29346131 646.31862836 338.05078125 650.82421875 C334.20345693 654.24900456 330.63329065 657.95745151 327.0234375 661.62890625 C318.60151793 670.19454459 318.60151793 670.19454459 314.0546875 674.09765625 C309.29177236 678.19093382 304.92629624 682.65537562 300.5234375 687.12890625 C295.50416241 692.22874756 290.46298125 697.18074108 285.03320312 701.84179688 C281.1903456 705.25891509 277.62735063 708.9634929 274.0234375 712.62890625 C269.17703346 717.55801343 264.29346131 722.31862836 259.05078125 726.82421875 C255.20345693 730.24900456 251.63329065 733.95745151 248.0234375 737.62890625 C239.60151793 746.19454459 239.60151793 746.19454459 235.0546875 750.09765625 C230.29177236 754.19093382 225.92629624 758.65537562 221.5234375 763.12890625 C216.50558729 768.22729981 211.46591767 773.17778983 206.03759766 777.83740234 C202.17172397 781.27592126 198.58705897 785.00377297 194.9609375 788.69140625 C180.84439899 803.04619857 180.84439899 803.04619857 175.8984375 804.62890625 C172.07258996 804.62890625 169.55395229 803.7836843 166.50282288 801.4815979 C164.34399048 798.77800841 163.86730328 796.08690537 163.04077148 792.73583984 C162.86401099 792.03169291 162.6872505 791.32754599 162.50513363 790.60206127 C161.91648123 788.24621022 161.34306536 785.88691705 160.76953125 783.52734375 C160.35366642 781.84994715 159.93686669 780.17278209 159.51919556 778.49583435 C158.39032942 773.95215214 157.27459651 769.40533508 156.16115189 764.85785294 C154.98348244 760.05788614 153.79369915 755.26092359 152.60522461 750.46362305 C150.42095445 741.63924192 148.24696613 732.81236663 146.0777235 723.98428059 C144.04293596 715.70441999 141.99942452 707.42673394 139.95312691 699.14971161 C136.85308018 686.60948681 133.76191388 674.06709301 130.67578125 661.5234375 C125.74961709 641.50187478 120.80086264 621.48590891 115.85105515 601.47018051 C113.74416329 592.95024417 111.6377102 584.43019933 109.53125 575.91015625 C109.30010183 574.97524542 109.06895367 574.04033459 108.83080101 573.07709312 C103.68586881 552.26733875 98.54757007 531.45594835 93.41011047 510.64434814 C88.44836911 490.54468715 83.48466435 470.44551444 78.515625 450.34765625 C78.28460398 449.41325966 78.05358295 448.47886307 77.81556129 447.51615143 C76.64538762 442.78326281 75.47518193 438.0503821 74.30496216 433.31750488 C74.07288685 432.37889114 73.84081154 431.4402774 73.60170364 430.47322083 C73.13277901 428.57668538 72.66385353 426.68015014 72.19492722 424.78361511 C65.63530483 398.25343962 59.08475756 371.72105069 52.54548645 345.18585205 C45.92708205 318.33008406 39.29063855 291.47879792 32.6484375 264.62890625 C23.53629412 227.79446606 14.43409753 190.95758551 5.34112549 154.1184082 C3.03094588 144.75904075 0.72007963 135.39984347 -1.59228516 126.04101562 C-1.81082027 125.15653433 -2.02935539 124.27205303 -2.25451279 123.36076927 C-3.35867979 118.89198187 -4.46296784 114.42322441 -5.56738281 109.95449829 C-7.71230832 101.27488727 -9.85531277 92.59481031 -11.99365234 83.91357422 C-12.8042631 80.62334803 -13.61499252 77.33315109 -14.42578125 74.04296875 C-14.62190002 73.24696636 -14.8180188 72.45096397 -15.02008057 71.6308403 C-17.32413813 62.2820849 -19.64602966 52.93820564 -22.00088501 43.60211182 C-23.17272218 38.95379498 -24.33596274 34.30335122 -25.49804688 29.65258789 C-26.017266 27.58580733 -26.54104502 25.52016588 -27.06982422 23.45581055 C-27.7753967 20.70112452 -28.46563002 17.94303041 -29.15234375 15.18359375 C-29.45843315 14.01635269 -29.45843315 14.01635269 -29.77070618 12.82553101 C-30.91865431 8.12972767 -31.11503655 4.43178487 -29.9765625 -0.37109375 C-22.74981192 -9.17869602 -9.08374409 -2.71249201 0 0 Z M-7.9765625 18.62890625 C1.00018846 55.92892836 10.09055395 93.20123008 19.26977539 130.45193481 C20.35790301 134.86849744 21.44319328 139.28574283 22.52612305 143.70358276 C23.81568691 148.96361503 25.1110571 154.22218366 26.41087723 159.47969055 C26.89415138 161.43849454 27.3753985 163.39779984 27.85453415 165.35762024 C28.51323727 168.05027429 29.17924993 170.74101582 29.84716797 173.43139648 C30.03929115 174.22407897 30.23141434 175.01676146 30.42935944 175.83346462 C31.28000813 179.22971371 32.06181226 181.68646838 34.0234375 184.62890625 C41.76993914 177.99758222 48.9183728 170.80646968 56.06958008 163.5456543 C59.62423552 159.95288315 63.17971869 156.42982616 67.015625 153.13671875 C71.77187116 149.05266662 76.12836733 144.5945233 80.5234375 140.12890625 C89.4770924 131.03153297 89.4770924 131.03153297 93.9921875 127.16015625 C98.93511415 122.91702579 103.45450107 118.26706899 108.0234375 113.62890625 C113.19515726 108.37882709 118.3738296 103.25818853 123.96875 98.4609375 C128.1732994 94.71201418 132.07175734 90.64046035 136.0234375 86.62890625 C141.29854443 81.27387345 146.54642517 76.00646556 152.33203125 71.19921875 C154.16847492 69.49425257 155.57823129 67.67075723 157.0234375 65.62890625 C124.81521789 56.22235839 92.58426693 46.89690461 60.3359375 37.62890625 C59.48335358 37.38384716 58.63076965 37.13878807 57.75234985 36.88630295 C48.05915463 34.1001991 38.36530411 31.31640025 28.67025185 28.5367651 C24.29702248 27.28251171 19.9248961 26.02450894 15.55378056 24.76290894 C13.53750649 24.18122199 11.52091764 23.60064148 9.50419617 23.02050781 C7.07001671 22.32010147 4.636398 21.61774223 2.20344543 20.91308594 C1.14526108 20.60918945 0.08707672 20.30529297 -1.00317383 19.9921875 C-1.92189774 19.72704346 -2.84062164 19.46189941 -3.78718567 19.1887207 C-5.92287009 18.54633098 -5.92287009 18.54633098 -7.9765625 18.62890625 Z M190.0234375 75.62890625 C190.66147938 81.7098092 191.84094124 87.47359315 193.33325195 93.39819336 C193.5677153 94.34477814 193.80217865 95.29136292 194.04374695 96.26663208 C194.82039626 99.39760145 195.60357492 102.52689937 196.38671875 105.65625 C196.93989698 107.88144969 197.49263774 110.10675817 198.04496765 112.33216858 C199.50769484 118.22115333 200.97582184 124.10877832 202.44525146 129.99609375 C204.75032985 139.23599404 207.04649525 148.47811689 209.34450912 157.71977615 C210.19798704 161.15129774 211.05211026 164.58265827 211.90628052 168.01400757 C217.67609803 191.20327459 223.3587142 214.41377411 229.0234375 237.62890625 C233.29061385 236.78988014 235.44395209 234.58039642 238.3828125 231.52734375 C238.8908844 231.01265533 239.3989563 230.49796692 239.92242432 229.96768188 C241.54669364 228.32004692 243.16050442 226.66263391 244.7734375 225.00390625 C246.88934761 222.84121799 249.00962342 220.6828854 251.1328125 218.52734375 C251.64835693 218.00311829 252.16390137 217.47889282 252.69506836 216.93878174 C256.02880596 213.57063568 259.4724033 210.41534392 263.07910156 207.34619141 C267.08478357 203.80827488 270.77627474 199.93621609 274.5234375 196.12890625 C279.54271259 191.02906494 284.58389375 186.07707142 290.01367188 181.41601562 C293.8565294 177.99889741 297.41952437 174.2943196 301.0234375 170.62890625 C309.44535707 162.06326791 309.44535707 162.06326791 313.9921875 158.16015625 C318.75510264 154.06687868 323.12057876 149.60243688 327.5234375 145.12890625 C332.52925278 140.04274081 337.50467145 135.04554266 343.02148438 130.50976562 C344.88344043 128.76043521 346.49573682 126.95598612 348.14855957 125.01135254 C348.68737007 124.37863686 349.22618057 123.74592117 349.78131866 123.09403229 C350.19121788 122.6105407 350.6011171 122.1270491 351.0234375 121.62890625 C335.10930021 116.72799819 319.14575862 112.02577297 303.13671875 107.4453125 C300.8152367 106.77961317 298.49380119 106.11375149 296.17240906 105.44773865 C290.11925704 103.71155425 284.06546804 101.97760161 278.01153564 100.24414062 C271.92460039 98.50077105 265.83830852 96.75515829 259.75195312 95.00976562 C249.46592547 92.06023687 239.17891639 89.11415105 228.89142036 86.16974831 C223.47783791 84.61981235 218.06522274 83.06662098 212.6545496 81.50655842 C210.57176859 80.90604453 208.48871763 80.30647772 206.40556335 79.70726013 C204.06576574 79.03382587 201.72652916 78.35843747 199.38801575 77.68055725 C198.41329819 77.4004631 197.43858063 77.12036896 196.43432617 76.83178711 C195.6174382 76.59568222 194.80055023 76.35957733 193.95890808 76.11631775 C192.03284639 75.54750412 192.03284639 75.54750412 190.0234375 75.62890625 Z M168.20092773 81.35375977 C167.41919189 82.14709717 166.63745605 82.94043457 165.83203125 83.7578125 C164.96900391 84.62857422 164.10597656 85.49933594 163.21679688 86.39648438 C161.40670726 88.23223082 159.5968055 90.06816253 157.78710938 91.90429688 C153.34245225 96.38837446 148.85673896 100.70597137 144.06274414 104.81225586 C139.86201798 108.55433695 135.969895 112.62265393 132.0234375 116.62890625 C126.85171774 121.87898541 121.6730454 126.99962397 116.078125 131.796875 C111.8735756 135.54579832 107.97511766 139.61735215 104.0234375 143.62890625 C98.84163756 148.88921831 93.65282868 154.02141372 88.046875 158.828125 C84.02530698 162.40716526 80.29826764 166.29348494 76.5234375 170.12890625 C71.43463763 175.2993883 66.3243579 180.33473223 60.81835938 185.06103516 C58.26731153 187.28938517 55.90211311 189.65469348 53.5234375 192.06640625 C52.6675 192.93136719 51.8115625 193.79632813 50.9296875 194.6875 C50.300625 195.32816406 49.6715625 195.96882813 49.0234375 196.62890625 C52.82494977 198.78742854 56.92935994 199.86482971 61.10668945 201.04882812 C61.92407404 201.28388471 62.74145863 201.51894129 63.58361244 201.7611208 C66.308588 202.543716 69.03513548 203.32068258 71.76171875 204.09765625 C73.69390879 204.65132979 75.62600011 205.20534795 77.55799866 205.75968933 C82.74360831 207.24651802 87.93059032 208.72850461 93.11785126 210.20956039 C98.46885114 211.73823899 103.8185851 213.27133469 109.16845703 214.80395508 C119.8075227 217.85099119 130.44805352 220.89288218 141.08905029 223.9331665 C146.60667783 225.50966544 152.12397065 227.08733235 157.64111328 228.66552734 C175.10009878 233.65959922 192.5604023 238.64901026 210.0234375 243.62890625 C211.19923899 240.10150178 210.78324379 238.79174997 209.89329529 235.22859192 C209.61725967 234.10641266 209.34122406 232.9842334 209.05682373 231.82804871 C208.74472961 230.59548843 208.4326355 229.36292816 208.11108398 228.09301758 C207.78529014 226.78195404 207.4602194 225.47071064 207.13581848 224.15930176 C206.25018343 220.58793424 205.35439458 217.01918199 204.45683169 213.45079637 C203.51417908 209.69584858 202.580845 205.93858607 201.64649963 202.18156433 C199.86815502 195.03686631 198.0814196 187.89429418 196.29169947 180.75243825 C194.27982898 172.72241521 192.27716074 164.69010749 190.27535903 156.65756953 C186.17601495 140.20941974 182.06396701 123.7644677 177.94739914 107.32062149 C176.47042874 101.41934387 174.99501617 95.517677 173.51977539 89.6159668 C173.26449538 88.59473378 173.00921537 87.57350077 172.74619961 86.5213213 C172.17191735 84.22385667 171.59766009 81.92638579 171.0234375 79.62890625 C169.72626797 79.51434288 169.72626797 79.51434288 168.20092773 81.35375977 Z M383.0234375 131.62890625 C385.18470819 140.60937646 387.35221271 149.58833798 389.5234375 158.56640625 C389.69292908 159.26727104 389.86242065 159.96813583 390.03704834 160.69023895 C397.26504265 190.56969511 404.632758 220.4143292 412.0234375 250.25390625 C412.29672882 251.35731731 412.57002014 252.46072838 412.85159302 253.59757614 C416.23954415 267.2753469 419.63019603 280.95244701 423.0234375 294.62890625 C426.13008417 293.14622048 428.22434057 291.65592607 430.6328125 289.1796875 C431.30570313 288.49583984 431.97859375 287.81199219 432.671875 287.10742188 C433.36539063 286.39263672 434.05890625 285.67785156 434.7734375 284.94140625 C438.71174261 280.90202297 442.62803005 276.90765558 446.9140625 273.234375 C451.88070933 268.96308306 456.4289277 264.29302984 461.0234375 259.62890625 C466.19515726 254.37882709 471.3738296 249.25818853 476.96875 244.4609375 C481.1732994 240.71201418 485.07175734 236.64046035 489.0234375 232.62890625 C494.19515726 227.37882709 499.3738296 222.25818853 504.96875 217.4609375 C509.1732994 213.71201418 513.07175734 209.64046035 517.0234375 205.62890625 C522.28490261 200.28772197 527.55281684 195.06058276 533.24609375 190.17919922 C535.79244469 187.95813762 538.15062472 185.59717477 540.5234375 183.19140625 C541.379375 182.32644531 542.2353125 181.46148437 543.1171875 180.5703125 C544.06078125 179.60931641 544.06078125 179.60931641 545.0234375 178.62890625 C542.62802491 176.23349366 541.03008224 175.88278256 537.78515625 174.95922852 C536.67451813 174.63960648 535.56388 174.31998444 534.41958618 173.99067688 C533.19573212 173.64570663 531.97187805 173.30073639 530.7109375 172.9453125 C529.41425041 172.57469969 528.11773534 172.20348455 526.82138062 171.83171082 C524.02642065 171.03149779 521.23032945 170.23541349 518.43328857 169.44250488 C513.99356658 168.18388908 509.55640007 166.91643362 505.11962891 165.64746094 C499.7013256 164.09836013 494.28243418 162.55134955 488.86277962 161.0069828 C474.44461727 156.89803322 460.03793255 152.74937335 445.63183594 148.59835815 C442.17383684 147.60207216 438.71551657 146.60690732 435.25703049 145.61231327 C433.27898843 145.04344355 431.30101569 144.47433339 429.32305908 143.90516663 C426.80070953 143.17948931 424.27821228 142.45432511 421.7555542 141.72972107 C415.81071556 140.01952551 409.87170493 138.29259808 403.94238281 136.52929688 C402.83190582 136.20036438 401.72142883 135.87143188 400.57730103 135.53253174 C398.50377733 134.91707265 396.4315571 134.29719775 394.3609314 133.67205811 C393.4485672 133.40161682 392.536203 133.13117554 391.59619141 132.85253906 C390.40940292 132.49618378 390.40940292 132.49618378 389.19863892 132.13262939 C386.74608573 131.47850284 386.74608573 131.47850284 383.0234375 131.62890625 Z M362.01733398 137.53735352 C360.71904663 138.85304321 360.71904663 138.85304321 359.39453125 140.1953125 C358.69264427 140.90287941 358.69264427 140.90287941 357.97657776 141.6247406 C355.97107058 143.64656067 353.97130022 145.67401674 351.97143555 147.70141602 C346.793428 152.94463128 341.60298825 158.0878379 335.99633789 162.87866211 C331.98733841 166.43521666 328.28111674 170.31091113 324.5234375 174.12890625 C319.51423281 179.21851551 314.48320969 184.15895226 309.06445312 188.81054688 C305.03846856 192.39733313 301.30422252 196.28743447 297.5234375 200.12890625 C292.51423281 205.21851551 287.48320969 210.15895226 282.06445312 214.81054688 C278.03846856 218.39733313 274.30422252 222.28743447 270.5234375 226.12890625 C265.42455917 231.30962853 260.30411829 236.356531 254.78710938 241.09228516 C252.42663019 243.14888206 250.21935951 245.33617296 248.0234375 247.56640625 C247.2603125 248.33855469 246.4971875 249.11070312 245.7109375 249.90625 C245.1540625 250.47472656 244.5971875 251.04320312 244.0234375 251.62890625 C244.89575762 253.94939494 244.89575762 253.94939494 247.84143066 254.63923645 C249.74620178 255.1771003 249.74620178 255.1771003 251.68945312 255.72583008 C252.39306441 255.92688071 253.0966757 256.12793135 253.82160854 256.33507442 C256.18891578 257.00949992 258.5592543 257.67259004 260.9296875 258.3359375 C262.61385907 258.8135831 264.29781981 259.29197264 265.98158264 259.77105713 C270.54397188 261.06719332 275.1089817 262.35386242 279.6745491 263.63875198 C284.41851356 264.9753306 289.16029999 266.31958329 293.90209961 267.66381836 C294.85330783 267.93346688 295.80451605 268.20311541 296.78454876 268.4809351 C298.72063344 269.02979356 300.65670893 269.57868445 302.59277534 270.12760735 C305.53891955 270.96252577 308.4853754 271.79633746 311.43186951 272.63002014 C323.67857779 276.09745787 335.91168447 279.60902046 348.13284683 283.16543007 C350.71395336 283.91642967 353.29538294 284.66630804 355.87692261 285.41581726 C369.4594104 289.36008198 369.4594104 289.36008198 375.38720703 291.09805298 C379.13546501 292.19695766 382.88589611 293.28809459 386.63812065 294.37337494 C388.00769908 294.77117119 389.3763953 295.17201926 390.74412727 295.57611847 C392.5986892 296.12376297 394.45661139 296.6599903 396.31469727 297.19555664 C397.86991844 297.6498983 397.86991844 297.6498983 399.45655823 298.11341858 C402.12620452 298.87066475 402.12620452 298.87066475 405.0234375 297.62890625 C404.87804346 297.04309815 404.73264942 296.45729006 404.5828495 295.8537302 C400.98996003 281.3773487 397.39800986 266.9007344 393.80701637 252.42388248 C392.07018386 245.42204745 390.3330667 238.42028329 388.59521484 231.41870117 C380.67396627 199.50432671 372.77296616 167.58551987 365.0234375 135.62890625 C363.68271332 135.51403089 363.68271332 135.51403089 362.01733398 137.53735352 Z M578.0234375 187.62890625 C581.27178237 204.21511123 585.43077352 220.57045612 589.56754303 236.95141602 C591.16532912 243.28455752 592.75350319 249.62012264 594.34301376 255.95534515 C594.75610922 257.6016626 595.16933064 259.24794845 595.58267593 260.89420319 C600.28979698 279.64303656 604.92447111 298.40958925 609.54549408 317.17980194 C610.14937015 319.63269461 610.75340822 322.08554735 611.35748291 324.53839111 C613.58116293 333.56814618 615.80326208 342.59828879 618.0234375 351.62890625 C620.97392689 351.94890277 620.97392689 351.94890277 622.56640625 350.34375 C623.10910156 349.75722656 623.65179687 349.17070312 624.2109375 348.56640625 C626.58370543 346.02044358 629.061807 343.71015307 631.69921875 341.4453125 C636.37014128 337.39459098 640.69074223 333.0355383 645.0234375 328.62890625 C649.86984154 323.69979907 654.75341369 318.93918414 659.99609375 314.43359375 C663.84341807 311.00880794 667.41358435 307.30036099 671.0234375 303.62890625 C679.44535707 295.06326791 679.44535707 295.06326791 683.9921875 291.16015625 C688.75510264 287.06687868 693.12057876 282.60243688 697.5234375 278.12890625 C702.54271259 273.02906494 707.58389375 268.07707142 713.01367188 263.41601562 C716.8565294 259.99889741 720.41952437 256.2943196 724.0234375 252.62890625 C729.03055158 247.53634653 734.02704699 242.62599333 739.58984375 238.13671875 C741.36796023 236.61330558 741.36796023 236.61330558 741.0234375 233.62890625 C740.34314484 233.43306442 739.66285217 233.2372226 738.96194458 233.03544617 C737.98853119 232.7552211 737.0151178 232.47499603 736.01220703 232.1862793 C734.90139771 231.86650116 733.79058838 231.54672302 732.64611816 231.21725464 C730.10030045 230.48436709 727.55448332 229.75147755 725.00866699 229.01858521 C718.49450595 227.14328471 711.98033862 225.26800609 705.46614647 223.39281368 C701.64148967 222.29183693 697.81683746 221.19084425 693.9921875 220.08984375 C693.21456684 219.86599062 692.43694618 219.64213749 691.63576126 219.41150093 C680.80664136 216.29409829 669.97774301 213.17592723 659.14902115 210.05714226 C654.76156293 208.79354358 650.37405976 207.53010097 645.9865551 206.26666355 C642.51819268 205.26788883 639.04986042 204.2690097 635.581604 203.26986694 C634.25769146 202.8884852 632.93377789 202.50710699 631.60986328 202.12573242 C630.63883384 201.84600476 630.63883384 201.84600476 629.64818764 201.56062603 C625.24808222 200.29329815 620.84728468 199.0283927 616.44628906 197.76416016 C611.96556537 196.47683971 607.48640924 195.18434541 603.00914192 193.88507175 C601.03305112 193.31211228 599.05646713 192.74089068 597.0796814 192.17033386 C594.61330294 191.45821695 592.14778265 190.74311903 589.68325806 190.02461243 C588.58814911 189.70929062 587.49304016 189.39396881 586.36474609 189.0690918 C585.40233002 188.79002487 584.43991394 188.51095795 583.44833374 188.22343445 C580.9539393 187.50984416 580.9539393 187.50984416 578.0234375 187.62890625 Z M558.0234375 192.62890625 C551.871852 197.83017785 546.17189325 203.38978507 540.5234375 209.12890625 C531.5697826 218.22627953 531.5697826 218.22627953 527.0546875 222.09765625 C522.11176085 226.34078671 517.59237393 230.99074351 513.0234375 235.62890625 C507.85171774 240.87898541 502.6730454 245.99962397 497.078125 250.796875 C492.8735756 254.54579832 488.97511766 258.61735215 485.0234375 262.62890625 C479.85171774 267.87898541 474.6730454 272.99962397 469.078125 277.796875 C464.8735756 281.54579832 460.97511766 285.61735215 457.0234375 289.62890625 C451.69426443 295.03882437 446.39963107 300.34095699 440.51953125 305.15625 C438.75847124 306.66670385 438.75847124 306.66670385 438.0234375 309.62890625 C439.19092529 309.96172607 440.35841309 310.2945459 441.5612793 310.63745117 C447.61149082 312.3626295 453.66127114 314.08931731 459.7109375 315.81640625 C460.87540405 316.14883331 462.03987061 316.48126038 463.23962402 316.82376099 C482.1946312 322.23643068 501.1433878 327.67075802 520.08984375 333.11328125 C521.79096345 333.60191115 521.79096345 333.60191115 523.5264492 334.10041237 C535.08074619 337.41930621 546.63483501 340.73892241 558.18838406 344.06041908 C562.58412439 345.32400569 566.98001825 346.58705757 571.37594414 347.84999847 C573.45117863 348.4463563 575.52634054 349.04296673 577.60142708 349.63983917 C580.46294803 350.46290564 583.32470764 351.28513714 586.18652344 352.10717773 C587.02869761 352.34964831 587.87087179 352.59211889 588.7385664 352.84193707 C589.90000148 353.17528419 589.90000148 353.17528419 591.0848999 353.5153656 C591.75328762 353.70751868 592.42167534 353.89967176 593.11031723 354.09764767 C595.07361426 354.64283994 597.04463883 355.14329661 599.0234375 355.62890625 C598.32616568 348.1456334 596.51366057 341.00347469 594.69140625 333.7265625 C594.34335993 332.32183445 593.99574128 330.91700038 593.64851379 329.5120697 C592.70501717 325.69946873 591.75590677 321.88828655 590.80554199 318.07739258 C589.80585655 314.06592644 588.81023478 310.05345228 587.81445312 306.04101562 C587.40243905 304.38088896 586.99042118 302.72076324 586.57839966 301.06063843 C586.37128483 300.22608501 586.16417 299.3915316 585.95077896 298.53168869 C585.30979335 295.94992707 584.66810237 293.36834148 584.02633667 290.78677368 C581.03674517 278.75407209 578.0828516 266.71293838 575.14574623 254.66732597 C573.77625217 249.05424203 572.4022541 243.44225863 571.02832699 237.83025837 C569.91348709 233.27480086 568.80164677 228.7186505 567.69613647 224.16091919 C566.65381355 219.86415392 565.60385731 215.56932646 564.54807091 211.2758503 C564.15936026 209.68895769 563.77355622 208.10135005 563.39078712 206.51301384 C562.86832657 204.34658819 562.33587556 202.18286516 561.80078125 200.01953125 C561.50421631 198.80297852 561.20765137 197.58642578 560.90209961 196.33300781 C560.61214111 195.4406543 560.32218262 194.54830078 560.0234375 193.62890625 C559.0334375 193.13390625 559.0334375 193.13390625 558.0234375 192.62890625 Z M41.0234375 214.62890625 C42.43647154 223.13228251 44.36793467 231.46393286 46.453125 239.82421875 C46.79971883 241.22473336 47.14600258 242.62532473 47.49200439 244.02598572 C48.42850622 247.81360157 49.36909767 251.600191 50.31040192 255.38661575 C51.30173431 259.37748266 52.28915242 263.3693176 53.27685547 267.36108398 C54.74550034 273.29520336 56.21533315 279.22902625 57.68656349 285.16250515 C60.686729 297.26269644 63.67697684 309.36532381 66.6640625 321.46875 C66.89492176 322.40414108 67.12578102 323.33953217 67.36363602 324.30326843 C68.28266065 328.0270181 69.20165128 331.75077616 70.12056923 335.47455215 C72.50628789 345.14217911 74.89368619 354.80939109 77.28125 364.4765625 C77.66546789 366.03230247 78.04968426 367.58804281 78.43389893 369.14378357 C79.29705917 372.63882922 80.16024075 376.13386961 81.0234375 379.62890625 C84.24407836 379.96384415 84.24407836 379.96384415 86.66015625 377.25 C87.68469585 376.19614977 88.70133416 375.13457422 89.7109375 374.06640625 C92.96792536 370.66428393 96.24706972 367.38860829 99.82421875 364.3203125 C104.63831449 360.16678353 109.0656831 355.65821369 113.5234375 351.12890625 C118.53264219 346.03929699 123.56366531 341.09886024 128.98242188 336.44726562 C133.00840644 332.86047937 136.74265248 328.97037803 140.5234375 325.12890625 C145.54271259 320.02906494 150.58389375 315.07707142 156.01367188 310.41601562 C159.8565294 306.99889741 163.41952437 303.2943196 167.0234375 299.62890625 C175.44524532 291.06338157 175.44524532 291.06338157 179.97265625 287.17578125 C184.84106245 282.99148566 189.32194416 278.43870905 193.8359375 273.87890625 C194.68091797 273.02941406 195.52589844 272.17992187 196.39648438 271.3046875 C197.95404768 269.73846419 199.51057446 268.17120883 201.06567383 266.60253906 C202.71426336 264.94058648 204.3675625 263.28358912 206.0234375 261.62890625 C187.29510914 256.22468217 168.56415354 250.82959737 149.8323288 245.43750763 C146.85517611 244.58046849 143.87805608 243.723316 140.90093994 242.8661499 C128.44536619 239.28009801 115.98927293 235.6958595 103.5323 232.11467075 C97.75778099 230.45455241 91.98346451 228.79373718 86.20962524 227.1312561 C80.68942136 225.54184849 75.16866076 223.95438939 69.64748192 222.36837196 C67.58474952 221.77546942 65.5222171 221.18187067 63.45989418 220.58754539 C60.61588684 219.76807985 57.77117235 218.95111604 54.92626953 218.13476562 C54.09239621 217.89386357 53.25852289 217.65296152 52.39938068 217.40475941 C48.62588237 216.32463022 44.89387899 215.31272253 41.0234375 214.62890625 Z M238.0234375 271.62890625 C241.50655976 288.0394087 245.59095634 304.30468729 249.62704468 320.58553314 C251.22638495 327.03850293 252.82229813 333.49232211 254.41875076 339.94600677 C254.83065056 341.61089388 255.24265616 343.2757548 255.65476608 344.9405899 C258.56331312 356.69098649 261.45015435 368.44649955 264.31838417 380.20680046 C265.48874412 385.00325651 266.66215613 389.79896707 267.83544064 394.59470844 C268.77145157 398.42205828 269.70520164 402.24993325 270.63412476 406.07901001 C271.50299739 409.66049947 272.37728721 413.24062224 273.25572777 416.81977654 C273.72946578 418.7565829 274.19713106 420.69487148 274.66462708 422.63319397 C274.94738998 423.78146164 275.23015289 424.92972931 275.52148438 426.11279297 C275.76475464 427.11172577 276.0080249 428.11065857 276.25866699 429.13986206 C276.95920224 431.84223474 276.95920224 431.84223474 279.0234375 434.62890625 C279.4359375 434.21116943 279.8484375 433.79343262 280.2734375 433.36303711 C282.18732528 431.42805598 284.10535421 429.49722824 286.0234375 427.56640625 C286.67183594 426.90962891 287.32023437 426.25285156 287.98828125 425.57617188 C291.21001744 422.3384865 294.4632693 419.2021068 297.9296875 416.2265625 C302.70887119 412.1060334 307.09938041 407.62397549 311.5234375 403.12890625 C320.4770924 394.03153297 320.4770924 394.03153297 324.9921875 390.16015625 C329.93511415 385.91702579 334.45450107 381.26706899 339.0234375 376.62890625 C344.19515726 371.37882709 349.3738296 366.25818853 354.96875 361.4609375 C359.1732994 357.71201418 363.07175734 353.64046035 367.0234375 349.62890625 C372.24522888 344.32799682 377.47246182 339.14135671 383.12109375 334.29541016 C386.38599294 331.43527132 389.45362948 328.38292049 392.5234375 325.31640625 C393.15507813 324.69701172 393.78671875 324.07761719 394.4375 323.43945312 C395.03304687 322.84583984 395.62859375 322.25222656 396.2421875 321.640625 C396.77779297 321.10912842 397.31339844 320.57763184 397.86523438 320.0300293 C399.23581345 318.67496194 399.23581345 318.67496194 399.0234375 316.62890625 C398.44290619 316.46335739 397.86237488 316.29780853 397.26425171 316.12724304 C391.32510205 314.43340549 385.38621381 312.73865368 379.44752789 311.04319096 C376.07623031 310.0807193 372.70486368 309.11849097 369.33334351 308.15679932 C350.97525768 302.91995598 332.62596783 297.65341235 314.28530121 292.35586739 C307.84175462 290.49524401 301.39742801 288.63732322 294.95315552 286.77921581 C288.54750156 284.93180465 282.14325553 283.07960277 275.73990154 281.22423649 C271.7039309 280.05602076 267.66669965 278.89221007 263.62912178 277.72956276 C261.73093211 277.18195276 259.83328212 276.63246829 257.9362011 276.08102989 C255.32774394 275.32306155 252.71748752 274.57163584 250.10668945 273.82177734 C248.95807717 273.48543541 248.95807717 273.48543541 247.7862606 273.1422987 C244.35766218 272.16449293 241.62220707 271.62890625 238.0234375 271.62890625 Z M215.921875 278.5703125 C214.67277344 279.86775391 214.67277344 279.86775391 213.3984375 281.19140625 C210.45757756 284.23895354 207.49571077 287.11711141 204.28125 289.875 C199.45181101 294.05395009 195.00105965 298.57941215 190.5234375 303.12890625 C185.51423281 308.21851551 180.48320969 313.15895226 175.06445312 317.81054688 C171.03846856 321.39733313 167.30422252 325.28743447 163.5234375 329.12890625 C158.51423281 334.21851551 153.48320969 339.15895226 148.06445312 343.81054688 C144.03846856 347.39733313 140.30422252 351.28743447 136.5234375 355.12890625 C131.50701214 360.22585208 126.46885408 365.17483858 121.04199219 369.83300781 C117.15310503 373.29293209 113.54676836 377.0440521 109.8984375 380.75390625 C105.10905144 385.62324867 100.37258907 390.37351092 95.0234375 394.62890625 C98.42209101 396.89467526 101.74102757 397.84045351 105.62255859 398.92529297 C106.4010488 399.14743155 107.17953901 399.36957012 107.98161983 399.59844017 C110.58532742 400.34010134 113.19109038 401.07426655 115.796875 401.80859375 C117.64648036 402.33411032 119.49593924 402.86014268 121.34526062 403.38665771 C125.29991837 404.51160804 129.2554436 405.63343304 133.21170044 406.75274658 C142.52793515 409.38863617 151.84006083 412.0389788 161.15239906 414.68859482 C163.25217176 415.28594295 165.35200402 415.88308175 167.45189476 416.4800148 C181.76189802 420.54795782 196.06181088 424.64878237 210.34765625 428.80078125 C211.16239159 429.03751179 211.97712692 429.27424232 212.81655121 429.51814651 C220.46994128 431.74247419 228.12186008 433.97180794 235.77213955 436.20681 C238.52040405 437.00919911 241.26923804 437.80962401 244.01819801 438.60962677 C245.87964549 439.15224272 247.74021366 439.6978723 249.60075378 440.24359131 C250.6916481 440.56104309 251.78254242 440.87849487 252.90649414 441.20556641 C253.85335587 441.48244293 254.80021759 441.75931946 255.77577209 442.04458618 C257.95898491 442.71277439 257.95898491 442.71277439 260.0234375 442.62890625 C258.69921557 433.69985408 256.74997703 425.01563114 254.5234375 416.2734375 C254.17125414 414.87517634 253.81954283 413.47679621 253.46826172 412.07830811 C252.71678204 409.08988555 251.96254331 406.10217923 251.20605469 403.11502075 C249.38596059 395.92674535 247.58111474 388.73463313 245.77459717 381.54293633 C245.14389073 379.03268483 244.51263961 376.52257073 243.88134766 374.01246643 C239.4088535 356.22075372 235.00646203 338.41185174 230.61706543 320.59948349 C230.02546626 318.19963601 229.43324803 315.79994214 228.84082031 313.40029907 C227.90734905 309.61915418 226.9749615 305.83774387 226.04351807 302.05609894 C225.70280667 300.6732959 225.36179411 299.29056703 225.02044678 297.90792084 C223.27383474 290.83097651 221.56723044 283.75302825 220.0234375 276.62890625 C217.79144259 276.40271839 217.79144259 276.40271839 215.921875 278.5703125 Z M432.0234375 327.62890625 C433.43647154 336.13228251 435.36793467 344.46393286 437.453125 352.82421875 C437.79971883 354.22473336 438.14600258 355.62532473 438.49200439 357.02598572 C439.42850622 360.81360157 440.36909767 364.600191 441.31040192 368.38661575 C442.30173431 372.37748266 443.28915242 376.3693176 444.27685547 380.36108398 C445.74550034 386.29520336 447.21533315 392.22902625 448.68656349 398.16250515 C451.686729 410.26269644 454.67697684 422.36532381 457.6640625 434.46875 C457.89492176 435.40414108 458.12578102 436.33953217 458.36363602 437.30326843 C459.28266065 441.0270181 460.20165128 444.75077616 461.12056923 448.47455215 C463.50628789 458.14217911 465.89368619 467.80939109 468.28125 477.4765625 C468.66546789 479.03230247 469.04968426 480.58804281 469.43389893 482.14378357 C470.29705917 485.63882922 471.16024075 489.13386961 472.0234375 492.62890625 C475.1329217 492.95374377 475.1329217 492.95374377 477.2565918 490.72045898 C478.11164307 489.84333252 478.96669434 488.96620605 479.84765625 488.0625 C480.54529839 487.35493309 480.54529839 487.35493309 481.2570343 486.6330719 C482.74891677 485.11776644 484.23034995 483.59274297 485.7109375 482.06640625 C487.64842859 480.08207401 489.59029932 478.10211241 491.53515625 476.125 C492.01040741 475.64106781 492.48565857 475.15713562 492.97531128 474.65853882 C496.21335907 471.38444181 499.57627836 468.3342107 503.07739258 465.34790039 C506.90778624 461.96441002 510.44186162 458.27160117 514.0234375 454.62890625 C518.86984154 449.69979907 523.75341369 444.93918414 528.99609375 440.43359375 C532.84341807 437.00880794 536.41358435 433.30036099 540.0234375 429.62890625 C544.86984154 424.69979907 549.75341369 419.93918414 554.99609375 415.43359375 C558.84341807 412.00880794 562.41358435 408.30036099 566.0234375 404.62890625 C570.90909962 399.65987106 575.83137377 394.85060164 581.1171875 390.30810547 C584.22286657 387.5723395 587.12010167 384.63873201 590.0234375 381.69140625 C590.60738281 381.10294922 591.19132813 380.51449219 591.79296875 379.90820312 C593.20548555 378.48410832 594.6148156 377.05685375 596.0234375 375.62890625 C595.11884079 373.23964877 595.11884079 373.23964877 591.77870178 372.4912262 C590.29760703 372.06093104 588.81390187 371.63956801 587.32836914 371.22485352 C586.51616504 370.99138057 585.70396093 370.75790762 584.86714458 370.51735973 C582.1413752 369.73585297 579.41253362 368.96566868 576.68359375 368.1953125 C574.75543326 367.64477142 572.82747893 367.09350784 570.89971924 366.54156494 C565.70688531 365.05682379 560.5113898 363.5816061 555.31534195 362.10815811 C549.95176892 360.58556606 544.59056402 359.05468686 539.22924805 357.52416992 C532.7462331 355.67387306 526.26304049 353.82421534 519.77876282 351.97834778 C506.57572838 348.21923891 493.38093399 344.4330051 480.1953125 340.61328125 C478.62785411 340.15958458 477.06038502 339.70592485 475.49290466 339.25230408 C469.69314625 337.57353773 463.8934215 335.89467646 458.09573364 334.20877075 C455.43298669 333.43454924 452.76968777 332.66229168 450.10565186 331.89251709 C447.7446631 331.21027501 445.38452978 330.52506237 443.02545166 329.83624268 C442.00425232 329.54199402 440.98305298 329.24774536 439.9309082 328.94458008 C439.04861038 328.68848465 438.16631256 328.43238922 437.25727844 328.16853333 C434.92043336 327.5114988 434.92043336 327.5114988 432.0234375 327.62890625 Z M412.0234375 332.62890625 C403.37599816 340.58057461 394.88471232 348.64650115 386.65625 357.03320312 C383.58980801 360.14108352 380.49055752 363.13354592 377.17578125 365.9765625 C372.19857844 370.26767109 367.63270362 374.94980277 363.0234375 379.62890625 C357.85171774 384.87898541 352.6730454 389.99962397 347.078125 394.796875 C342.8735756 398.54579832 338.97511766 402.61735215 335.0234375 406.62890625 C329.85171774 411.87898541 324.6730454 416.99962397 319.078125 421.796875 C314.8735756 425.54579832 310.97511766 429.61735215 307.0234375 433.62890625 C301.20768141 439.53277985 295.3607753 445.28288386 289.0234375 450.62890625 C292.55325074 452.58946502 296.17719577 453.64286696 300.04931641 454.75756836 C300.75472596 454.96179759 301.46013552 455.16602682 302.18692112 455.37644482 C304.5402286 456.05675307 306.89509664 456.73148853 309.25 457.40625 C310.92622967 457.88962592 312.60235972 458.37334743 314.27839661 458.85739136 C318.79602232 460.16103566 323.31501578 461.45987733 327.83430099 462.75775528 C332.52968513 464.10698867 337.22389035 465.46031104 341.91821289 466.81323242 C349.5677265 469.01734043 357.21797996 471.21886324 364.86865234 473.41894531 C374.39822966 476.15961919 383.92518196 478.90930205 393.45101166 481.66296959 C397.98667019 482.97386895 402.52272087 484.28341048 407.05879974 485.5928545 C410.58762445 486.61156471 414.1162986 487.63078863 417.64459229 488.65133667 C421.53969623 489.77783762 425.43581292 490.90079696 429.33203125 492.0234375 C430.45035843 492.34738495 431.56868561 492.6713324 432.72090149 493.00509644 C439.7856638 495.0368875 446.88025734 496.89297405 454.0234375 498.62890625 C450.77514146 482.04295059 446.61718409 465.68736158 442.47973633 449.30680084 C440.67322248 442.15004982 438.87598613 434.99095973 437.078125 427.83203125 C436.87270836 427.01463093 436.66729172 426.19723061 436.45565033 425.35506058 C433.44135423 413.35628079 430.47207502 401.34707267 427.538517 389.32830429 C426.91208211 386.76217195 426.28477201 384.19625511 425.65719604 381.63040161 C423.85121268 374.24481175 422.04775949 366.8586742 420.25898552 359.46889496 C419.52478596 356.44203773 418.78485615 353.41660266 418.04339218 350.39151764 C417.6998395 348.98428322 417.35882119 347.57642738 417.02048111 346.1679306 C416.55918938 344.24857013 416.08845097 342.33148725 415.6171875 340.41455078 C415.35615234 339.33932159 415.09511719 338.26409241 414.82617188 337.15628052 C414.19325355 334.49213607 414.19325355 334.49213607 412.0234375 332.62890625 Z M90.0234375 413.62890625 C91.38863309 421.77579942 93.19519983 429.75813243 95.20043945 437.76928711 C95.51456787 439.03599243 95.82869629 440.30269775 96.15234375 441.60778809 C97.00689214 445.05335584 97.86565381 448.49786056 98.72522759 451.94217753 C99.63156758 455.57701129 100.5339638 459.21282402 101.43681335 462.848526 C103.14923268 469.74176384 104.865174 476.63411983 106.58239192 483.52616364 C108.51804383 491.29564935 110.44965026 499.06613889 112.38095534 506.83670604 C118.24705037 530.43777793 124.11846839 554.03752564 130.0234375 577.62890625 C131.14997724 576.66821082 132.27582685 575.70670607 133.40138245 574.74485779 C134.02841348 574.20950629 134.65544451 573.6741548 135.30147648 573.12258053 C137.1064887 571.55686546 138.81828742 569.93538713 140.48828125 568.2265625 C141.06126953 567.64583984 141.63425781 567.06511719 142.22460938 566.46679688 C143.37829914 565.28715234 144.53194527 564.10746512 145.68554688 562.92773438 C148.65393292 559.91937007 151.6634861 557.0346265 154.87109375 554.28125 C159.66863419 550.14057421 164.08036679 545.64329431 168.5234375 541.12890625 C177.4770924 532.03153297 177.4770924 532.03153297 181.9921875 528.16015625 C186.93511415 523.91702579 191.45450107 519.26706899 196.0234375 514.62890625 C201.19515726 509.37882709 206.3738296 504.25818853 211.96875 499.4609375 C216.1732994 495.71201418 220.07175734 491.64046035 224.0234375 487.62890625 C229.29567799 482.27678333 234.57361297 477.03237588 240.27734375 472.13916016 C242.61432286 470.11783007 244.8294698 467.99132909 247.0234375 465.81640625 C248.168125 464.69298828 248.168125 464.69298828 249.3359375 463.546875 C251.24362382 461.80442396 251.24362382 461.80442396 251.0234375 459.62890625 C186.90324183 441.07251164 186.90324183 441.07251164 122.74268341 422.65629578 C120.45625588 422.0025677 118.16997516 421.34832839 115.88372803 420.69396973 C112.33143373 419.67738221 108.7787369 418.66221499 105.22567558 417.64831161 C103.32047877 417.10438897 101.41561343 416.55930573 99.51075745 416.01419067 C98.39659958 415.69674896 97.28244171 415.37930725 96.13452148 415.05224609 C95.16465805 414.77536957 94.19479462 414.49849304 93.19554138 414.21322632 C91.23738025 413.5856103 91.23738025 413.5856103 90.0234375 413.62890625 Z M287.0234375 470.62890625 C289.94487002 484.12476861 293.16524212 497.53350195 296.49609375 510.93359375 C297.02470657 513.06686122 297.55313957 515.20017325 298.08140564 517.33352661 C299.46765436 522.92947821 300.85655146 528.52476923 302.24597168 534.11993408 C303.34848733 538.56164134 304.44909597 543.00381997 305.5496006 547.44602585 C312.66906044 576.18328621 319.83040294 604.90997798 327.0234375 633.62890625 C328.14816764 632.66712727 329.27257726 631.70497345 330.39685059 630.74266052 C331.33613529 629.93902148 331.33613529 629.93902148 332.29439545 629.1191473 C335.45253803 626.39718128 338.48473696 623.54511604 341.5234375 620.69140625 C342.55404297 619.72557617 342.55404297 619.72557617 343.60546875 618.74023438 C349.11804993 613.54510531 354.49804897 608.22749798 359.79882812 602.81665039 C362.72703416 599.84491921 365.70131977 597.00370735 368.8671875 594.28515625 C373.66584946 590.14295864 378.07907039 585.64461151 382.5234375 581.12890625 C387.54271259 576.02906494 392.58389375 571.07707142 398.01367188 566.41601562 C401.8565294 562.99889741 405.41952437 559.2943196 409.0234375 555.62890625 C413.86590322 550.7038046 418.74482727 545.94477261 423.98291016 541.44238281 C427.89201009 537.96825092 431.53434796 534.22055921 435.2109375 530.50390625 C435.99146484 529.71886719 436.77199219 528.93382812 437.57617188 528.125 C439.02877281 526.66377463 440.48033276 525.20151299 441.93041992 523.73779297 C444.28848026 521.36185395 446.6552622 518.99475956 449.0234375 516.62890625 C437.09417495 513.19212724 425.16471819 509.75602402 413.234375 506.32299805 C412.48952976 506.10866403 411.74468452 505.89433001 410.97726822 505.67350101 C407.82687439 504.76697224 404.67647417 503.86046572 401.52605438 502.95402718 C390.18516813 499.69100035 378.84507143 496.425245 367.50559425 493.15732479 C358.88492068 490.67309761 350.2636535 488.19093687 341.64201927 485.71004581 C336.29120021 484.17025051 330.94066538 482.62948195 325.59075928 481.08651733 C320.50151024 479.61876218 315.4115494 478.15350225 310.32104111 476.6901207 C308.42491039 476.14454993 306.52904558 475.59805407 304.63345718 475.05060196 C302.03367742 474.29992732 299.43298418 473.55250607 296.83203125 472.8059082 C296.06380476 472.58324878 295.29557827 472.36058935 294.50407219 472.13118267 C290.82288215 471.01950918 290.82288215 471.01950918 287.0234375 470.62890625 Z M250.7265625 487.8984375 C248.53218964 490.10072276 246.34327077 492.30785252 244.1640625 494.52514648 C240.91407446 497.81552855 237.64435071 501.00813188 234.1328125 504.01953125 C229.16780603 508.2936696 224.61839936 512.96432375 220.0234375 517.62890625 C214.85171774 522.87898541 209.6730454 527.99962397 204.078125 532.796875 C199.8735756 536.54579832 195.97511766 540.61735215 192.0234375 544.62890625 C186.85171774 549.87898541 181.6730454 554.99962397 176.078125 559.796875 C171.8735756 563.54579832 167.97511766 567.61735215 164.0234375 571.62890625 C158.20768141 577.53277985 152.3607753 583.28288386 146.0234375 588.62890625 C148.28368605 590.8891548 149.50605465 591.22558344 152.54199219 592.07983398 C153.50322998 592.35390579 154.46446777 592.6279776 155.45483398 592.91035461 C157.05887085 593.35691658 157.05887085 593.35691658 158.6953125 593.8125 C159.83653564 594.13619064 160.97775879 594.45988129 162.15356445 594.79338074 C164.68066775 595.50938147 167.20831889 596.22296516 169.73718262 596.93267822 C176.01410164 598.69441005 182.28570719 600.47492706 188.55802155 602.25296783 C190.88053563 602.91107481 193.2032927 603.56831937 195.52606201 604.2255249 C207.95580174 607.74503711 220.37154917 611.31223092 232.78365326 614.89339638 C236.01330139 615.82520057 239.24310844 616.75645192 242.47296143 617.68754578 C259.95042828 622.72636918 259.95042828 622.72636918 268.20983887 625.11471558 C273.30983299 626.58934417 278.41090007 628.06020315 283.51275635 629.52837563 C285.41437861 630.07638535 287.31558935 630.62582523 289.21636963 631.17674828 C291.82778303 631.9334866 294.44055174 632.68535149 297.05371094 633.43603516 C297.82304836 633.66026374 298.59238579 633.88449232 299.38503647 634.11551571 C302.362461 634.96630713 304.90972282 635.62890625 308.0234375 635.62890625 C304.96485699 621.4485786 301.54387925 607.36982366 298.04296875 593.29296875 C297.46471954 590.96117545 296.88665454 588.62933646 296.3087616 586.29745483 C294.79352042 580.18551047 293.27562958 574.07422717 291.75720215 567.96307373 C290.24198079 561.86253594 288.72957678 555.76129982 287.21679688 549.66015625 C280.84685308 523.9761067 274.4562965 498.2972734 268.0234375 472.62890625 C263.42084912 472.62890625 254.0165764 484.60915602 250.7265625 487.8984375 Z M138.0234375 607.62890625 C139.2641566 614.87025332 140.75428251 621.99596815 142.53857422 629.12182617 C142.78293716 630.1094696 143.02730011 631.09711304 143.27906799 632.11468506 C144.08382239 635.36373468 144.89343265 638.61155277 145.703125 641.859375 C146.27715269 644.17239887 146.85088719 646.48549553 147.42434692 648.79866028 C148.93900175 654.90474369 150.45782368 661.00978325 151.97747803 667.11462402 C153.47722043 673.14281521 154.97274188 679.1720531 156.46875 685.20117188 C163.95278217 715.35229065 171.47877712 745.49290696 179.0234375 775.62890625 C180.30173797 774.68283834 181.57829759 773.73441795 182.85412598 772.78501892 C183.56519753 772.25712234 184.27626907 771.72922575 185.00888824 771.1853323 C187.57936429 769.19940127 189.84586972 767.0152283 192.1171875 764.6953125 C193.00277344 763.79876953 193.88835937 762.90222656 194.80078125 761.97851562 C195.69925781 761.05876953 196.59773438 760.13902344 197.5234375 759.19140625 C202.88599334 753.72498455 208.22894747 748.35777892 214.04882812 743.37866211 C217.88456718 739.97970788 221.43179421 736.28184039 225.0234375 732.62890625 C229.86984154 727.69979907 234.75341369 722.93918414 239.99609375 718.43359375 C243.84341807 715.00880794 247.41358435 711.30036099 251.0234375 707.62890625 C259.44535707 699.06326791 259.44535707 699.06326791 263.9921875 695.16015625 C268.75510264 691.06687868 273.12057876 686.60243688 277.5234375 682.12890625 C282.61223737 676.9584242 287.7225171 671.92308027 293.22851562 667.19677734 C295.77956347 664.96842733 298.14476189 662.60311902 300.5234375 660.19140625 C301.379375 659.32644531 302.2353125 658.46148438 303.1171875 657.5703125 C304.06078125 656.60931641 304.06078125 656.60931641 305.0234375 655.62890625 C301.72477755 653.42979962 299.00573654 652.62924413 295.19384766 651.54785156 C294.14749444 651.24864681 294.14749444 651.24864681 293.08000278 650.94339752 C290.74222854 650.27626998 288.40238735 649.61670558 286.0625 648.95703125 C284.39230587 648.48193974 282.72224976 648.0063628 281.05232239 647.53033447 C276.52773927 646.24193971 272.0013633 644.95995277 267.47462082 643.6791687 C262.75820366 642.34366738 258.04332391 641.00276275 253.32836914 639.66210938 C247.48649664 638.0012808 241.64450793 636.34086905 235.80183411 634.68286133 C223.24952385 631.12010001 210.70344785 627.53621726 198.16268158 623.9330368 C195.44860999 623.15333391 192.73437657 622.37419717 190.02008057 621.59527588 C188.70386593 621.21755098 188.70386593 621.21755098 187.3610611 620.83219528 C185.61756946 620.33186175 183.87407482 619.83153864 182.13057709 619.33122635 C177.87627251 618.11016542 173.62235657 616.88777955 169.36920166 615.66271973 C165.3863059 614.51560407 161.40236784 613.37218348 157.41760826 612.23155975 C155.95916069 611.81333636 154.5011135 611.39371388 153.04349709 610.97260284 C151.06314067 610.40062693 149.08145879 609.83349966 147.09936523 609.26757812 C145.4375547 608.78992004 145.4375547 608.78992004 143.74217224 608.3026123 C141.00494352 607.508643 141.00494352 607.508643 138.0234375 607.62890625 Z " fill="#000000" transform="translate(150.9765625,130.37109375)"/>
</svg>
